<svg aria-hidden="true" style="position: absolute; width: 0; height: 0; overflow: hidden;" version="1.1" xmlns="http://www.w3.org/2000/svg" xmlns:xlink="http://www.w3.org/1999/xlink">
<defs>
<symbol id="icon-followerOf" viewBox="0 0 24 24">
<path fill="#0f0" style="fill: var(--color1, #0f0)" d="M16 16.055v-1.099c1.469-0.827 2.667-2.891 2.667-4.955 0-3.314 0-6-4-6s-4 2.686-4 6c0 2.064 1.198 4.127 2.667 4.955v1.099c-4.523 0.37-8 2.592-8 5.279h18.667c0-2.687-3.477-4.909-8-5.279z"></path>
<path fill="#000" style="fill: var(--color2, #000)" d="M6.817 16.569c1.152-0.753 2.585-1.326 4.162-1.675-0.313-0.371-0.598-0.784-0.843-1.229-0.633-1.151-0.969-2.418-0.969-3.665 0-1.793 0-3.485 0.637-4.87 0.619-1.344 1.732-2.177 3.317-2.489-0.353-1.593-1.291-2.641-3.788-2.641-4 0-4 2.686-4 6 0 2.064 1.198 4.127 2.667 4.955v1.099c-4.523 0.37-8 2.592-8 5.279h5.813c0.303-0.269 0.637-0.525 1.004-0.764z"></path>
</symbol>
<symbol id="icon-followedBy" viewBox="0 0 24 24">
<path fill="#000" style="fill: var(--color2, #000)" d="M16 16.055v-1.099c1.469-0.827 2.667-2.891 2.667-4.955 0-3.314 0-6-4-6s-4 2.686-4 6c0 2.064 1.198 4.127 2.667 4.955v1.099c-4.523 0.37-8 2.592-8 5.279h18.667c0-2.687-3.477-4.909-8-5.279z"></path>
<path fill="#0f0" style="fill: var(--color1, #0f0)" d="M6.817 16.569c1.152-0.753 2.585-1.326 4.162-1.675-0.313-0.371-0.598-0.784-0.843-1.229-0.633-1.151-0.969-2.418-0.969-3.665 0-1.793 0-3.485 0.637-4.87 0.619-1.344 1.732-2.177 3.317-2.489-0.353-1.593-1.291-2.641-3.788-2.641-4 0-4 2.686-4 6 0 2.064 1.198 4.127 2.667 4.955v1.099c-4.523 0.37-8 2.592-8 5.279h5.813c0.303-0.269 0.637-0.525 1.004-0.764z"></path>
</symbol>
<symbol id="icon-users" viewBox="0 0 27 24">
<path d="M18 18.061v-1.237c1.652-0.931 3-3.252 3-5.574 0-3.728 0-6.75-4.5-6.75s-4.5 3.022-4.5 6.75c0 2.322 1.348 4.643 3 5.574v1.237c-5.088 0.416-9 2.916-9 5.939h21c0-3.023-3.912-5.523-9-5.939z"></path>
<path d="M7.669 18.64c1.296-0.847 2.908-1.491 4.683-1.885-0.353-0.417-0.673-0.882-0.949-1.383-0.713-1.295-1.090-2.72-1.090-4.123 0-2.017 0-3.921 0.717-5.479 0.696-1.512 1.948-2.449 3.732-2.8-0.396-1.792-1.452-2.971-4.261-2.971-4.5 0-4.5 3.022-4.5 6.75 0 2.322 1.348 4.643 3 5.574v1.237c-5.088 0.416-9 2.916-9 5.939h6.539c0.34-0.303 0.717-0.59 1.129-0.86z"></path>
</symbol>
<symbol id="icon-search" viewBox="0 0 24 24">
<path d="M23.256 20.423l-5.685-4.835c-0.588-0.529-1.216-0.772-1.724-0.748 1.342-1.572 2.153-3.611 2.153-5.84 0-4.971-4.029-9-9-9s-9 4.029-9 9 4.029 9 9 9c2.229 0 4.268-0.811 5.84-2.153-0.023 0.508 0.219 1.136 0.748 1.724l4.835 5.685c0.828 0.92 2.18 0.997 3.005 0.172s0.747-2.177-0.172-3.005zM9 15c-3.314 0-6-2.686-6-6s2.686-6 6-6 6 2.686 6 6-2.686 6-6 6z"></path>
</symbol>
<symbol id="icon-shrink" viewBox="0 0 24 24">
<path d="M13.5 10.5h9.75l-3.75-3.75 4.5-4.5-2.25-2.25-4.5 4.5-3.75-3.75z"></path>
<path d="M13.5 13.5v9.75l3.75-3.75 4.5 4.5 2.25-2.25-4.5-4.5 3.75-3.75z"></path>
<path d="M10.5 13.5h-9.75l3.75 3.75-4.5 4.5 2.25 2.25 4.5-4.5 3.75 3.75z"></path>
<path d="M10.5 10.5v-9.75l-3.75 3.75-4.5-4.5-2.25 2.25 4.5 4.5-3.75 3.75z"></path>
</symbol>
<symbol id="icon-enlarge" viewBox="0 0 24 24">
<path d="M24 0h-9.75l3.75 3.75-4.5 4.5 2.25 2.25 4.5-4.5 3.75 3.75z"></path>
<path d="M24 24v-9.75l-3.75 3.75-4.5-4.5-2.25 2.25 4.5 4.5-3.75 3.75z"></path>
<path d="M0 24h9.75l-3.75-3.75 4.5-4.5-2.25-2.25-4.5 4.5-3.75-3.75z"></path>
<path d="M0 0v9.75l3.75-3.75 4.5 4.5 2.25-2.25-4.5-4.5 3.75-3.75z"></path>
</symbol>
<symbol id="icon-science" viewBox="0 0 24 24">
<path d="M19.781 18.422l-5.766-7.734v-4.172l1.313-1.688q0.234-0.281 0.094-0.563t-0.469-0.281h-5.906q-0.328 0-0.469 0.281t0.094 0.563l1.313 1.688v4.172l-5.766 7.734q-0.281 0.328-0.234 0.68t0.328 0.633 0.703 0.281h13.969q0.422 0 0.703-0.281t0.328-0.633-0.234-0.68z"></path>
</symbol>
<symbol id="icon-festibucks" viewBox="0 0 24 24">
<path d="M11.25 1.5c-6.213 0-11.25 5.037-11.25 11.25s5.037 11.25 11.25 11.25c6.213 0 11.25-5.037 11.25-11.25s-5.037-11.25-11.25-11.25zM11.25 21.75c-4.971 0-9-4.029-9-9s4.029-9 9-9c4.971 0 9 4.029 9 9s-4.029 9-9 9zM12 12v-3h3v-1.5h-3v-1.5h-1.5v1.5h-3v12h1.5v-6h1.5v6h1.5v-6h3v-1.5zM10.5 12h-1.5v-3h1.5z"></path>
</symbol>
<symbol id="icon-paint-format" viewBox="0 0 24 24">
<path d="M24 13.5v-9h-4.5v-1.5c0-0.825-0.675-1.5-1.5-1.5h-16.5c-0.825 0-1.5 0.675-1.5 1.5v4.5c0 0.825 0.675 1.5 1.5 1.5h16.5c0.825 0 1.5-0.675 1.5-1.5v-1.5h3v6h-13.5v3h-0.75c-0.414 0-0.75 0.336-0.75 0.75v7.5c0 0.414 0.336 0.75 0.75 0.75h3c0.414 0 0.75-0.336 0.75-0.75v-7.5c0-0.414-0.336-0.75-0.75-0.75h-0.75v-1.5h13.5zM18 4.5h-16.5v-1.5h16.5v1.5z"></path>
</symbol>
<symbol id="icon-music" viewBox="0 0 24 24">
<path d="M22.5 0h1.5v17.25c0 2.071-2.351 3.75-5.25 3.75s-5.25-1.679-5.25-3.75c0-2.071 2.351-3.75 5.25-3.75 1.469 0 2.797 0.431 3.75 1.126v-8.626l-12 2.667v11.583c0 2.071-2.351 3.75-5.25 3.75s-5.25-1.679-5.25-3.75c0-2.071 2.35-3.75 5.25-3.75 1.469 0 2.797 0.431 3.75 1.126v-14.626l13.5-3z"></path>
</symbol>
<symbol id="icon-envelop" viewBox="0 0 24 24">
<path d="M21.75 3h-19.5c-1.237 0-2.25 1.012-2.25 2.25v15c0 1.237 1.013 2.25 2.25 2.25h19.5c1.237 0 2.25-1.013 2.25-2.25v-15c0-1.238-1.013-2.25-2.25-2.25zM9.345 12.899l-6.345 4.943v-11.757l6.345 6.814zM4.134 6h15.732l-7.866 5.906-7.866-5.906zM9.593 13.165l2.407 2.585 2.407-2.585 4.935 6.335h-14.684l4.935-6.335zM14.655 12.899l6.345-6.814v11.757l-6.345-4.943z"></path>
</symbol>
<symbol id="icon-location" viewBox="0 0 24 24">
<path d="M12 0c-4.142 0-7.5 3.358-7.5 7.5 0 7.5 7.5 16.5 7.5 16.5s7.5-9 7.5-16.5c0-4.142-3.358-7.5-7.5-7.5zM12 12c-2.485 0-4.5-2.015-4.5-4.5s2.015-4.5 4.5-4.5 4.5 2.015 4.5 4.5-2.015 4.5-4.5 4.5z"></path>
</symbol>
<symbol id="icon-clock" viewBox="0 0 24 24">
<path d="M15.439 17.561l-4.939-4.939v-6.621h3v5.379l4.061 4.061zM12 0c-6.627 0-12 5.373-12 12s5.373 12 12 12 12-5.373 12-12-5.373-12-12-12zM12 21c-4.971 0-9-4.029-9-9s4.029-9 9-9c4.971 0 9 4.029 9 9s-4.029 9-9 9z"></path>
</symbol>
<symbol id="icon-calendar" viewBox="0 0 24 24">
<path d="M7.5 9h3v3h-3zM12 9h3v3h-3zM16.5 9h3v3h-3zM3 18h3v3h-3zM7.5 18h3v3h-3zM12 18h3v3h-3zM7.5 13.5h3v3h-3zM12 13.5h3v3h-3zM16.5 13.5h3v3h-3zM3 13.5h3v3h-3zM19.5 0v1.5h-3v-1.5h-10.5v1.5h-3v-1.5h-3v24h22.5v-24h-3zM21 22.5h-19.5v-16.5h19.5v16.5z"></path>
</symbol>
<symbol id="icon-reply" viewBox="0 0 24 24">
<path d="M10.5 18.179v5.821l-9-9 9-9v5.949c10.471 0.246 10.022-7.12 7.356-11.949 6.579 7.111 5.182 18.506-7.356 18.179z"></path>
</symbol>
<symbol id="icon-bubble" viewBox="0 0 24 24">
<path d="M12 1.5c6.627 0 12 4.365 12 9.75s-5.373 9.75-12 9.75c-0.636 0-1.261-0.041-1.871-0.118-2.578 2.578-5.654 3.040-8.629 3.108v-0.631c1.606-0.787 3-2.22 3-3.859 0-0.229-0.018-0.453-0.051-0.673-2.714-1.787-4.449-4.518-4.449-7.577 0-5.385 5.373-9.75 12-9.75z"></path>
</symbol>
<symbol id="icon-bubble2" viewBox="0 0 24 24">
<path d="M12 4.5c-1.287 0-2.531 0.203-3.696 0.603-1.095 0.376-2.070 0.908-2.898 1.581-1.552 1.261-2.407 2.882-2.407 4.566 0 0.944 0.262 1.86 0.779 2.722 0.533 0.889 1.336 1.701 2.32 2.35 0.711 0.469 1.19 1.218 1.317 2.060 0.042 0.281 0.069 0.565 0.079 0.847 0.175-0.145 0.346-0.301 0.513-0.468 0.566-0.566 1.331-0.879 2.121-0.879 0.126 0 0.252 0.008 0.379 0.024 0.492 0.062 0.994 0.094 1.492 0.094 1.288 0 2.531-0.203 3.696-0.603 1.095-0.376 2.070-0.908 2.898-1.581 1.552-1.261 2.407-2.882 2.407-4.566s-0.855-3.305-2.407-4.566c-0.828-0.673-1.803-1.204-2.898-1.581-1.165-0.4-2.408-0.603-3.696-0.603zM12 1.5v0c6.627 0 12 4.365 12 9.75s-5.373 9.75-12 9.75c-0.636 0-1.261-0.041-1.871-0.118-2.578 2.578-5.654 3.040-8.629 3.108v-0.631c1.606-0.787 3-2.22 3-3.859 0-0.229-0.018-0.453-0.051-0.673-2.714-1.787-4.449-4.518-4.449-7.577 0-5.385 5.373-9.75 12-9.75z"></path>
</symbol>
<symbol id="icon-user" viewBox="0 0 24 24">
<path d="M13.5 16.561v-1.237c1.652-0.931 3-3.252 3-5.574 0-3.728 0-6.75-4.5-6.75s-4.5 3.022-4.5 6.75c0 2.322 1.348 4.643 3 5.574v1.237c-5.088 0.416-9 2.916-9 5.939h21c0-3.023-3.912-5.523-9-5.939z"></path>
</symbol>
<symbol id="icon-user-plus" viewBox="0 0 24 24">
<path d="M9 17.25c0-3.545 2.247-6.574 5.391-7.739 0.382-0.856 0.609-1.809 0.609-2.761 0-3.728 0-6.75-4.5-6.75s-4.5 3.022-4.5 6.75c0 2.322 1.348 4.643 3 5.574v1.237c-5.088 0.416-9 2.916-9 5.939h9.312c-0.203-0.716-0.312-1.47-0.312-2.25z"></path>
<path d="M17.25 10.5c-3.728 0-6.75 3.022-6.75 6.75s3.022 6.75 6.75 6.75c3.728 0 6.75-3.022 6.75-6.75s-3.022-6.75-6.75-6.75zM21 18h-3v3h-1.5v-3h-3v-1.5h3v-3h1.5v3h3v1.5z"></path>
</symbol>
<symbol id="icon-hammer" viewBox="0 0 24 24">
<path d="M23.672 19.429l-7.067-7.067c-0.438-0.438-1.153-0.438-1.591 0l-0.53 0.53-4.313-4.313 7.079-7.079h-7.5l-3.329 3.329-0.33-0.329h-1.591v1.591l0.329 0.329-4.829 4.83 3.75 3.75 4.829-4.829 4.313 4.313-0.53 0.53c-0.438 0.438-0.438 1.153 0 1.591l7.067 7.067c0.438 0.438 1.153 0.438 1.591 0l2.652-2.652c0.438-0.437 0.438-1.153 0-1.591z"></path>
</symbol>
<symbol id="icon-bin2" viewBox="0 0 24 24">
<path d="M4.5 24h15l1.5-16.5h-18zM15 3v-3h-6v3h-7.5v4.5l1.5-1.5h18l1.5 1.5v-4.5h-7.5zM13.5 3h-3v-1.5h3v1.5z"></path>
</symbol>
<symbol id="icon-menu" viewBox="0 0 24 24">
<path d="M1.5 4.5h21v4.5h-21zM1.5 10.5h21v4.5h-21zM1.5 16.5h21v4.5h-21z"></path>
</symbol>
<symbol id="icon-flag" viewBox="0 0 24 24">
<path d="M0 0h3v24h-3v-24z"></path>
<path d="M19.5 15.070c1.937 0 3.623-0.468 4.5-1.16v-12c-0.877 0.692-2.563 1.16-4.5 1.16s-3.623-0.468-4.5-1.16v12c0.877 0.692 2.563 1.16 4.5 1.16z"></path>
<path d="M14.25 0.762c-1.099-0.467-2.707-0.762-4.5-0.762-2.259 0-4.227 0.468-5.25 1.16v12c1.023-0.692 2.991-1.16 5.25-1.16 1.793 0 3.401 0.295 4.5 0.762v-12z"></path>
</symbol>
<symbol id="icon-eye" viewBox="0 0 24 24">
<path d="M12 4.5c-5.234 0-9.771 3.048-12 7.5 2.229 4.452 6.766 7.5 12 7.5s9.771-3.048 12-7.5c-2.229-4.452-6.766-7.5-12-7.5zM17.917 8.477c1.41 0.899 2.605 2.104 3.502 3.523-0.897 1.418-2.092 2.623-3.502 3.523-1.772 1.13-3.818 1.727-5.917 1.727s-4.145-0.597-5.917-1.727c-1.41-0.899-2.605-2.104-3.502-3.523 0.897-1.419 2.092-2.623 3.502-3.523 0.092-0.059 0.185-0.115 0.278-0.171-0.233 0.64-0.361 1.332-0.361 2.053 0 3.314 2.686 6 6 6s6-2.686 6-6c0-0.721-0.128-1.413-0.361-2.053 0.093 0.056 0.186 0.113 0.278 0.171v0zM12 9.75c0 1.243-1.007 2.25-2.25 2.25s-2.25-1.007-2.25-2.25 1.007-2.25 2.25-2.25 2.25 1.007 2.25 2.25z"></path>
</symbol>
<symbol id="icon-star-full" viewBox="0 0 24 24">
<path d="M24 9.306l-8.292-1.205-3.708-7.514-3.708 7.514-8.292 1.205 6 5.849-1.416 8.258 7.416-3.899 7.416 3.899-1.416-8.258 6-5.849z"></path>
</symbol>
<symbol id="icon-cancel-circle" viewBox="0 0 24 24">
<path d="M12 0c-6.627 0-12 5.373-12 12s5.373 12 12 12 12-5.373 12-12-5.373-12-12-12zM12 21.75c-5.385 0-9.75-4.365-9.75-9.75s4.365-9.75 9.75-9.75 9.75 4.365 9.75 9.75-4.365 9.75-9.75 9.75z"></path>
<path d="M15.75 6l-3.75 3.75-3.75-3.75-2.25 2.25 3.75 3.75-3.75 3.75 2.25 2.25 3.75-3.75 3.75 3.75 2.25-2.25-3.75-3.75 3.75-3.75z"></path>
</symbol>
<symbol id="icon-checkmark" viewBox="0 0 24 24">
<path d="M20.25 3l-11.25 11.25-5.25-5.25-3.75 3.75 9 9 15-15z"></path>
</symbol>
<symbol id="icon-enter" viewBox="0 0 24 24">
<path d="M9 12h-7.5v-3h7.5v-3l4.5 4.5-4.5 4.5zM24 0v19.5l-9 4.5v-4.5h-9v-6h1.5v4.5h7.5v-13.5l6-3h-13.5v6h-1.5v-7.5z"></path>
</symbol>
<symbol id="icon-exit" viewBox="0 0 24 24">
<path d="M18 15v-3h-7.5v-3h7.5v-3l4.5 4.5zM16.5 13.5v6h-7.5v4.5l-9-4.5v-19.5h16.5v7.5h-1.5v-6h-12l6 3v13.5h6v-4.5z"></path>
</symbol>
<symbol id="icon-checkbox-checked" viewBox="0 0 24 24">
<path d="M21 0h-18c-1.65 0-3 1.35-3 3v18c0 1.65 1.35 3 3 3h18c1.65 0 3-1.35 3-3v-18c0-1.65-1.35-3-3-3zM10.5 18.621l-5.561-5.561 2.121-2.121 3.439 3.439 7.189-7.189 2.121 2.121-9.311 9.311z"></path>
</symbol>
<symbol id="icon-share" viewBox="0 0 24 24">
<path d="M6 15c0 0 1.379-4.5 9-4.5v4.5l9-6-9-6v4.5c-6 0-9 3.742-9 7.5zM16.5 18h-13.5v-9h2.95c0.237-0.279 0.49-0.547 0.761-0.801 1.030-0.965 2.263-1.703 3.659-2.199h-10.371v15h19.5v-6.296l-3 2v1.296z"></path>
</symbol>
<symbol id="icon-spotify" viewBox="0 0 24 24">
<path d="M12 0c-6.6 0-12 5.4-12 12s5.4 12 12 12 12-5.4 12-12-5.339-12-12-12zM17.522 17.339c-0.239 0.361-0.661 0.478-1.022 0.239-2.822-1.739-6.361-2.1-10.561-1.139-0.422 0.122-0.778-0.178-0.9-0.539-0.122-0.422 0.178-0.778 0.539-0.9 4.561-1.022 8.522-0.6 11.639 1.322 0.422 0.178 0.483 0.656 0.305 1.017zM18.961 14.039c-0.3 0.422-0.839 0.6-1.261 0.3-3.239-1.978-8.161-2.578-11.939-1.378-0.478 0.122-1.022-0.122-1.139-0.6-0.122-0.478 0.122-1.022 0.6-1.139 4.378-1.322 9.778-0.661 13.5 1.622 0.356 0.178 0.539 0.778 0.239 1.195zM19.078 10.678c-3.839-2.278-10.261-2.522-13.922-1.378-0.6 0.178-1.2-0.178-1.378-0.722-0.178-0.6 0.178-1.2 0.722-1.378 4.261-1.261 11.278-1.022 15.722 1.622 0.539 0.3 0.722 1.022 0.422 1.561-0.305 0.417-1.022 0.595-1.566 0.295z"></path>
</symbol>
<symbol id="icon-wikipedia" viewBox="0 0 24 24">
<path d="M22.659 5.475c0 0.075-0.023 0.145-0.070 0.211-0.047 0.061-0.098 0.094-0.159 0.094-0.469 0.047-0.853 0.197-1.148 0.45-0.3 0.253-0.605 0.745-0.919 1.462l-4.837 10.908c-0.033 0.103-0.122 0.15-0.267 0.15-0.112 0-0.202-0.052-0.267-0.15l-2.714-5.672-3.122 5.672c-0.066 0.103-0.15 0.15-0.267 0.15-0.141 0-0.23-0.052-0.277-0.15l-4.748-10.903c-0.295-0.675-0.609-1.148-0.938-1.416s-0.788-0.436-1.373-0.497c-0.052 0-0.098-0.028-0.141-0.080-0.047-0.052-0.066-0.112-0.066-0.183 0-0.178 0.052-0.267 0.15-0.267 0.422 0 0.867 0.019 1.331 0.056 0.431 0.037 0.834 0.056 1.214 0.056 0.384 0 0.844-0.019 1.369-0.056 0.548-0.038 1.036-0.056 1.463-0.056 0.103 0 0.15 0.089 0.15 0.267s-0.033 0.262-0.094 0.262c-0.422 0.033-0.759 0.141-1.003 0.323s-0.366 0.422-0.366 0.722c0 0.15 0.052 0.342 0.15 0.567l3.923 8.869 2.231-4.209-2.077-4.355c-0.375-0.778-0.68-1.28-0.919-1.505s-0.605-0.361-1.092-0.412c-0.047 0-0.084-0.028-0.127-0.080s-0.061-0.113-0.061-0.183c0-0.178 0.042-0.267 0.131-0.267 0.422 0 0.811 0.019 1.167 0.056 0.342 0.038 0.703 0.056 1.092 0.056 0.38 0 0.778-0.019 1.205-0.056 0.436-0.037 0.867-0.056 1.289-0.056 0.103 0 0.15 0.089 0.15 0.267s-0.028 0.263-0.094 0.263c-0.848 0.056-1.27 0.3-1.27 0.722 0 0.188 0.098 0.483 0.295 0.881l1.373 2.789 1.369-2.55c0.188-0.361 0.286-0.666 0.286-0.909 0-0.581-0.422-0.891-1.27-0.928-0.075 0-0.113-0.089-0.113-0.262 0-0.066 0.019-0.122 0.056-0.178s0.075-0.084 0.112-0.084c0.305 0 0.675 0.019 1.12 0.056 0.422 0.037 0.773 0.056 1.045 0.056 0.197 0 0.483-0.019 0.863-0.047 0.478-0.042 0.881-0.066 1.205-0.066 0.075 0 0.112 0.075 0.112 0.225 0 0.202-0.070 0.305-0.206 0.305-0.492 0.052-0.891 0.188-1.191 0.408s-0.675 0.722-1.125 1.509l-1.833 3.356 2.466 5.025 3.642-8.47c0.127-0.309 0.188-0.595 0.188-0.853 0-0.619-0.422-0.947-1.27-0.989-0.075 0-0.112-0.089-0.112-0.263 0-0.178 0.056-0.267 0.169-0.267 0.309 0 0.675 0.019 1.102 0.056 0.394 0.037 0.722 0.056 0.984 0.056 0.281 0 0.6-0.019 0.966-0.056 0.38-0.037 0.722-0.056 1.027-0.056 0.094 0 0.141 0.075 0.141 0.225z"></path>
</symbol>
<symbol id="icon-live_help" viewBox="0 0 24 24">
<path d="M15.047 10.266q0.938-0.938 0.938-2.25 0-1.641-1.172-2.836t-2.813-1.195-2.813 1.195-1.172 2.836h1.969q0-0.797 0.609-1.406t1.406-0.609 1.406 0.609 0.609 1.406-0.609 1.406l-1.219 1.266q-1.172 1.266-1.172 2.813v0.516h1.969q0-1.594 1.172-2.859zM12.984 18v-2.016h-1.969v2.016h1.969zM18.984 2.016q0.797 0 1.406 0.586t0.609 1.383v14.016q0 0.797-0.609 1.406t-1.406 0.609h-3.984l-3 3-3-3h-3.984q-0.844 0-1.43-0.586t-0.586-1.43v-14.016q0-0.844 0.586-1.406t1.43-0.563h13.969z"></path>
</symbol>
</defs>
</svg>
